<svg id="Layer_1" data-name="Layer 1" xmlns="http://www.w3.org/2000/svg" viewBox="0 0 46 46"><defs><style>.cls-1{fill:#4a56a4;}</style></defs><title>icon</title><path class="cls-1" d="M32.6,16.16c-6.76,0-9.19-2.79-11-4.82l-.17-.2-.59-.7c-1.23-1.49-2.11-2.57-7.78-2.57-6,0-8.08,2.88-8.17,3a2.48,2.48,0,0,1-3.44.75A2.52,2.52,0,0,1,.74,8.15C.88,7.94,4.2,2.87,13.1,2.87c7.43,0,9.59,1.9,11.64,4.39l.5.59.18.21c1.51,1.73,2.7,3.1,7.18,3.1,4.78,0,8.9-3.35,8.94-3.38a2.5,2.5,0,0,1,3.21,3.83C44.54,11.79,39.26,16.16,32.6,16.16Z"/><path class="cls-1" d="M32.6,29.64c-6.76,0-9.19-2.79-11-4.82l-.17-.2-.59-.7c-1.23-1.49-2.11-2.57-7.78-2.57-6,0-8.08,2.88-8.17,3a2.48,2.48,0,0,1-3.44.75,2.52,2.52,0,0,1-.76-3.47c.14-.22,3.45-5.28,12.36-5.28,7.43,0,9.59,1.9,11.64,4.39l.5.59.18.21c1.51,1.73,2.7,3.1,7.18,3.1,4.81,0,8.91-3.35,8.95-3.38a2.5,2.5,0,0,1,3.21,3.83C44.54,25.28,39.26,29.64,32.6,29.64Z"/><path class="cls-1" d="M32.6,43.13c-6.76,0-9.19-2.79-11-4.82l-.17-.2-.59-.7c-1.23-1.49-2.11-2.57-7.78-2.57-6,0-8.08,2.88-8.17,3a2.48,2.48,0,0,1-3.44.75,2.52,2.52,0,0,1-.76-3.47c.14-.22,3.45-5.28,12.36-5.28,7.43,0,9.59,1.9,11.64,4.39l.5.59.18.21c1.51,1.73,2.7,3.1,7.18,3.1,4.78,0,8.9-3.35,8.94-3.38a2.5,2.5,0,0,1,3.21,3.83C44.54,38.76,39.26,43.13,32.6,43.13Z"/></svg>