<svg id="Layer_1" data-name="Layer 1" xmlns="http://www.w3.org/2000/svg" viewBox="0 0 46 46"><defs><style>.cls-1{fill:#4a56a4;}</style></defs><title>icon</title><path class="cls-1" d="M23,11.5A79,79,0,0,1,7.55,10.16C2.78,9.16.46,7.8.46,6S2.78,2.85,7.55,1.85A79,79,0,0,1,23,.51,79,79,0,0,1,38.45,1.85c4.77,1,7.09,2.36,7.09,4.15s-2.32,3.15-7.09,4.15A79,79,0,0,1,23,11.5Zm0-9C9,2.46,2.5,5,2.42,6,2.51,7,9,9.55,23,9.55S43.49,7,43.58,6C43.49,5,37,2.46,23,2.46Z"/><path class="cls-1" d="M24.19,15.57c-15.72,0-19.52-2.07-19.9-2.31a1,1,0,0,1,1-1.67c.09.05,3.85,2,18.88,2,14.2,0,16.79-1.72,17-1.88a1,1,0,0,1,1.45,1.31C42.14,13.64,39.37,15.57,24.19,15.57Z"/><path class="cls-1" d="M23.81,20.09C9.72,20.09,6,18.27,5.86,18.19a1,1,0,0,1,.88-1.74c.08,0,3.75,1.68,17.06,1.68,8.87,0,12.54-.86,12.58-.87a1,1,0,1,1,.46,1.9C36.69,19.2,32.91,20.09,23.81,20.09Z"/><path class="cls-1" d="M19,24.41a49.16,49.16,0,0,1-14.52-2,1,1,0,0,1,.63-1.85A48.18,48.18,0,0,0,19,22.46c8.22,0,12.57-.38,12.61-.39A1,1,0,1,1,31.8,24C31.62,24,27.33,24.41,19,24.41Z"/><path class="cls-1" d="M21.4,28.91c-13,0-15.46-2-15.83-2.39A1,1,0,0,1,7,25.19c.2.16,3.13,2.2,19.26,1.69h0a1,1,0,0,1,0,2C24.53,28.89,22.9,28.91,21.4,28.91Z"/><path class="cls-1" d="M19.82,32.93c-9.46,0-11.5-1.27-11.94-1.86a1,1,0,0,1,1.48-1.26c.21.15,2.44,1.44,14,1.12a1,1,0,0,1,.06,2C22.08,32.92,20.9,32.93,19.82,32.93Zm-10.37-3h0Zm0,0h0Zm0,0Z"/><path class="cls-1" d="M23.34,37.21c-4.64,0-10.36-.12-11.29-.71A1,1,0,0,1,13,34.78c.18.05,1.89.48,10.38.48a1,1,0,0,1,0,2Z"/><path class="cls-1" d="M25.13,41.54H18.26a1,1,0,0,1,0-2h6.87a1,1,0,0,1,0,2Z"/><path class="cls-1" d="M25,45.49H22a1,1,0,0,1,0-2H25a1,1,0,0,1,0,2Z"/></svg>