<svg id="Layer_1" data-name="Layer 1" xmlns="http://www.w3.org/2000/svg" viewBox="0 0 46 46"><defs><style>.cls-1{fill:#4a56a4;}</style></defs><title>icon</title><path class="cls-1" d="M37,10.27s-.38-1.58,1.89-1.58,2.06,1.58,2.06,1.58l2.18,6.48s2.25-.4,2.25,1.66a1.62,1.62,0,0,1-1.79,1.84h-40S.64,19.58.64,17.39V10.5h1.7s.13-1.82,1.54-1.82S5,10.5,5,10.5Z"/><path class="cls-1" d="M29.34,23H41.12l3.61,9.48a10.79,10.79,0,0,1,.63,3c0,1.29-1.75,1.82-1.75,1.82h-7s-4.21-2.33-4.21-6.2H26.07s-7.3-3.47-7.3-7.8c0-1.12,3-.83,3.36-.17.93,1.68,1.63,4.32,6.11,4.32h2s1.56.26,0-2S29.34,23,29.34,23Z"/></svg>