<svg id="Layer_1" data-name="Layer 1" xmlns="http://www.w3.org/2000/svg" viewBox="0 0 46 46"><defs><style>.cls-1{fill:#4a56a4;}</style></defs><title>icon</title><path class="cls-1" d="M41.35,27.13A18.36,18.36,0,0,1,4.66,28a.12.12,0,0,1,0-.06v0c0-.87.52-8.41,5-11.8,0,0-.1,6.22,5,9.63-.36-7,.37-12,1.6-15.64C19.3.81,25.61.51,25.61.51A69,69,0,0,0,25.79,9c.93,10.46,4.39,11,4.39,11,.09-4.57,1.6-6.86,3.14-8a5.63,5.63,0,0,1,3.38-1.14c0,1.85,0,3.54.58,4.78,1,2,2.51,3.75,3.19,5.92h0A18.19,18.19,0,0,1,41.35,27.13Z"/></svg>