<svg id="Layer_1" data-name="Layer 1" xmlns="http://www.w3.org/2000/svg" viewBox="0 0 46 46"><defs><style>.cls-1{fill:#4a56a4;}</style></defs><title>icon</title><path class="cls-1" d="M4.5,40.56v5.5h37v-5.5c0-4.65-8.29-8.41-18.5-8.41S4.5,35.91,4.5,40.56Z"/><path class="cls-1" d="M23.81,28.34h-.16a3,3,0,0,1-2.84-3.15C21,21.5,24,18.82,27.43,15.71l.36-.33c2.21-2,2.23-2.6,2.27-4v-.18c0-1,.08-2.86-1-3.95C28.1,6.28,26.28,5.85,23.8,6c-6.66.27-6.85,5.95-6.85,6.6a3,3,0,1,1-6,0C10.95,8.37,13.58.36,23.55,0c4.25-.17,7.51.83,9.7,3,3,2.92,2.85,6.84,2.81,8.32v.23c-.07,2.62-.42,4.89-4.24,8.35l-.36.33c-2.15,1.94-4.58,4.13-4.65,5.33A3,3,0,0,1,23.81,28.34Z"/></svg>