<svg id="Layer_1" data-name="Layer 1" xmlns="http://www.w3.org/2000/svg" viewBox="0 0 46 46"><defs><style>.cls-1{fill:#4a56a4;}</style></defs><title>icon</title><path class="cls-1" d="M37.21,16.87c0-10.82-4.32-16.5-14-16.5S9.52,5.3,9.52,18,5.08,33.36,5.08,33.36,9.75,45.63,23.24,45.63,40.92,33.36,40.92,33.36,37.21,27.68,37.21,16.87Zm-16.77,3s-2.2,2.49-4.21.49-2.53-4.48-2-5.12,4.7,1,4.7,1C22.55,17.87,20.44,19.83,20.44,19.83Zm9.89.49c-2,2-4.21-.49-4.21-.49s-2.1-2,1.55-3.58c0,0,4.21-1.68,4.7-1S32.33,18.32,30.33,20.32Z"/></svg>