<svg id="Layer_1" data-name="Layer 1" xmlns="http://www.w3.org/2000/svg" viewBox="0 0 46 46"><defs><style>.cls-1{fill:#4a56a4;}</style></defs><title>icon</title><path class="cls-1" d="M39.11,20.68s7.91.62,6.14-1.14-6.82-3.29-9.09-1-4.79,0-4.79,0a7.82,7.82,0,0,0-6.46-2.82c-4.55,0-5.54,1.57-7.73,2.18A11.81,11.81,0,0,1,13,17.81a17.85,17.85,0,0,0-6-1.75C.28,15.19.49,19.88.49,22s2.39,6.67,6.77,7.85c3.16.85,3.49.78,5.61-1.79s2.76-2.91,4.71-1,2.37,3,4.8,3c1.49,0,6.21-1.58,7.64-4.85s5.38-2,6.62-.71S44,28.1,44,26.82s-3.07-2.43-5.26-4.62S39.11,20.68,39.11,20.68ZM8.79,23.92a5.27,5.27,0,0,1-3.5-1.85c-.52-.88,1.57-1.85,3.5-1.85s3.51.83,3.51,1.85S10.72,24.1,8.79,23.92Zm17-1.85a5.28,5.28,0,0,1-3.51,1.85c-1.93.18-3.51-.83-3.51-1.85s1.57-1.85,3.51-1.85S26.28,21.2,25.76,22.07Z"/></svg>