<svg id="Layer_1" data-name="Layer 1" xmlns="http://www.w3.org/2000/svg" viewBox="0 0 46 46"><defs><style>.cls-1{fill:#4a56a4;}</style></defs><title>icon</title><circle class="cls-1" cx="11.57" cy="23.16" r="7.77"/><path class="cls-1" d="M22.28,40.83a2.57,2.57,0,0,1-1.82-4.4c13.62-13.62.56-27.1,0-27.67a2.57,2.57,0,1,1,3.66-3.63c6,6.06,13.76,21.17,0,34.94A2.57,2.57,0,0,1,22.28,40.83Z"/><path class="cls-1" d="M32.58,45.36a2.57,2.57,0,0,1-2.05-4.13C45,22,31.2,5.59,30.6,4.9A2.57,2.57,0,0,1,34.5,1.53c.17.2,17.14,20.28.14,42.81A2.57,2.57,0,0,1,32.58,45.36Z"/></svg>