<svg id="Layer_1" data-name="Layer 1" xmlns="http://www.w3.org/2000/svg" viewBox="0 0 46 46"><defs><style>.cls-1{fill:#4a56a4;}</style></defs><title>icon</title><path class="cls-1" d="M21,34.76a.86.86,0,0,1-.83-.65l-3-12.17-2.59,6.49a.86.86,0,0,1-1.56.07l-2.28-4.44-2,2.33a.86.86,0,0,1-.66.31H1.56a.86.86,0,0,1,0-1.72H7.63l2.53-3a.86.86,0,0,1,1.42.16l2,3.91,2.88-7.21a.86.86,0,0,1,1.63.11l2.73,10.94,3.35-17.93a.86.86,0,0,1,.83-.7h0a.86.86,0,0,1,.84.67l3.24,14.6,2.47-5.63a.86.86,0,0,1,.79-.51h0a.86.86,0,0,1,.79.52l2.71,6.27L37,25.56a.86.86,0,0,1,.7-.37h6.75a.86.86,0,0,1,0,1.72h-6.3l-1.75,2.5a.86.86,0,0,1-1.49-.15l-2.54-5.87-2.73,6.23A.86.86,0,0,1,28,29.46L25.1,16.39,21.8,34.06a.86.86,0,0,1-.82.7Z"/></svg>